<svg id="Layer_1" data-name="Layer 1" xmlns="http://www.w3.org/2000/svg" viewBox="0 0 463.85 467.88"><defs><style>.cls-1{fill:#eeefc7;}.cls-2{fill:#22ab92;}.cls-3{fill:#16a085;}.cls-4{fill:#27c4a7;}.cls-5{fill:#1abc9c;}.cls-6{fill:#0c5f4f;}.cls-7{fill:#2a8a78;}.cls-8{fill:#279581;}.cls-9{fill:#cdd2d0;}.cls-10{fill:#f9690e;}.cls-11{fill:#f1f8f5;}.cls-12{fill:#1b8975;}.cls-13{fill:#c7540b;}.cls-14{fill:#f7ca18;}.cls-15{fill:#d2ae1f;}.cls-16{fill:#f39c12;}.cls-17{fill:#bd801f;}.cls-18{fill:#c1c6c4;}</style></defs><path class="cls-1" d="M471.93,240c0,129.2-103.84,233.94-231.93,233.94S8.07,369.2,8.07,240,111.91,6.06,240,6.06,471.93,110.8,471.93,240" transform="translate(-8.07 -6.06)"/><path class="cls-2" d="M67.64,106l23.84-.88,14-5.34,135.67,8.89,5.76,177,4.11,32-140.6,33.8L52,320.38,57.36,295Z" transform="translate(-8.07 -6.06)"/><path class="cls-3" d="M110.39,351.73l-3.81-45.38-1-206.77L90.87,105l-7,200.08Z" transform="translate(-8.07 -6.06)"/><path class="cls-4" d="M106.28,306.15l140.4-22,4.11,33.13-140.4,34Z" transform="translate(-8.07 -6.06)"/><path class="cls-5" d="M52.43,319.93l31.45-14.67,26.31,45.58Z" transform="translate(-8.07 -6.06)"/><path class="cls-6" d="M147.7,116.92a6.22,6.22,0,0,1-6,6.45h0a6.22,6.22,0,0,1-6-6.45h0a6.22,6.22,0,0,1,6-6.45h0a6.22,6.22,0,0,1,6,6.45Z" transform="translate(-8.07 -6.06)"/><path class="cls-6" d="M212.56,120.48a6.08,6.08,0,1,1-6.06-6.56A6.33,6.33,0,0,1,212.56,120.48Z" transform="translate(-8.07 -6.06)"/><path class="cls-7" d="M142.22,122.82a.74.74,0,0,0-.71.76.82.82,0,0,0,.12.43s.75,1.22,1.58,2.78a26.12,26.12,0,0,1,2.09,4.74,13.05,13.05,0,0,1,.22,2.26c0,.8,0,1.45,0,1.45a.71.71,0,1,0,1.41.08v0s0-.69,0-1.55a11.91,11.91,0,0,0-.28-2.63,26.5,26.5,0,0,0-2.22-5.09c-.86-1.6-1.62-2.85-1.62-2.85a.69.69,0,0,0-.59-.35Z" transform="translate(-8.07 -6.06)"/><path class="cls-7" d="M142.54,118.21a.76.76,0,0,0,0,1.52s.52,0,1.13.15a4.94,4.94,0,0,1,1.54.53,10.48,10.48,0,0,1,3.63,6.71c.12,1.31-.85,2.77-1.45,4.54-.41,1.19-1.38,3.64-1.38,3.64a.78.78,0,0,0,.36,1,.68.68,0,0,0,.93-.38v0s1-2.42,1.4-3.71c.49-1.45,1.74-3.13,1.53-5.23a11.86,11.86,0,0,0-4.18-7.77,4.63,4.63,0,0,0-2.15-.81,12.2,12.2,0,0,0-1.28-.17Z" transform="translate(-8.07 -6.06)"/><path class="cls-8" d="M163.93,162.26c0,14.63-7.81,26.49-17.44,26.49h0c-9.64,0-17.45-11.86-17.45-26.49h0c0-14.63,7.81-26.49,17.45-26.49h0c9.63,0,17.44,11.86,17.44,26.49Z" transform="translate(-8.07 -6.06)"/><path class="cls-9" d="M140.27,175.17a1.39,1.39,0,0,0,.73,1.75,1.23,1.23,0,0,0,1.62-.78v0l9.44-27.86a1.4,1.4,0,0,0-.73-1.76,1.23,1.23,0,0,0-1.62.78v0l-9.44,27.87Z" transform="translate(-8.07 -6.06)"/><path class="cls-9" d="M150.49,163.13a4.18,4.18,0,0,0,.09,3.05,3.67,3.67,0,0,0,5,2h0a1.2,1.2,0,0,0,.41-.33,4.22,4.22,0,0,0,1.34-5,3.59,3.59,0,0,0-4.9-1.92,4,4,0,0,0-2,2.28Zm2.29.93a1.39,1.39,0,0,1,.73-.75,1.08,1.08,0,0,1,1.56.61,1.25,1.25,0,0,1-.53,1.77,1.1,1.1,0,0,1-1.69-.66,1.37,1.37,0,0,1-.07-1Z" transform="translate(-8.07 -6.06)"/><path class="cls-10" d="M150.28,146.39a1.27,1.27,0,0,0-1.23.91l-9.43,27.87a1.39,1.39,0,0,0,.71,1.76,1.22,1.22,0,0,0,1.63-.76.64.64,0,0,0,0-.07l9.43-27.86a1.4,1.4,0,0,0-.73-1.76,1.3,1.3,0,0,0-.4-.09Z" transform="translate(-8.07 -6.06)"/><path class="cls-11" d="M163,161.7c0,14.63-7.81,26.49-17.44,26.49h0c-9.63,0-17.44-11.86-17.44-26.49h0c0-14.63,7.81-26.49,17.44-26.49h0c9.63,0,17.44,11.86,17.44,26.49Z" transform="translate(-8.07 -6.06)"/><path class="cls-10" d="M153.21,160.48a3.4,3.4,0,0,0-1.41.37,4.2,4.2,0,0,0-1.88,5.33,3.68,3.68,0,0,0,5,2,1.34,1.34,0,0,0,.42-.33,4.22,4.22,0,0,0,1.33-5A3.69,3.69,0,0,0,153.21,160.48Zm.56,2.76a1.15,1.15,0,0,1,.64.67,1.25,1.25,0,0,1-.53,1.78,1.09,1.09,0,0,1-1.68-.66,1.23,1.23,0,0,1,.66-1.72A1.09,1.09,0,0,1,153.77,163.24Z" transform="translate(-8.07 -6.06)"/><path class="cls-11" d="M141.63,122.82a.74.74,0,0,0-.7.76.82.82,0,0,0,.12.43s.74,1.22,1.58,2.78a26.73,26.73,0,0,1,2.08,4.74,11.94,11.94,0,0,1,.23,2.26c0,.8,0,1.45,0,1.45a.76.76,0,0,0,.68.8.73.73,0,0,0,.73-.73v0s0-.69,0-1.55a11.91,11.91,0,0,0-.28-2.63,26.5,26.5,0,0,0-2.22-5.09c-.86-1.6-1.62-2.85-1.62-2.85A.69.69,0,0,0,141.63,122.82Z" transform="translate(-8.07 -6.06)"/><path class="cls-11" d="M142,118.2a.75.75,0,0,0-.7.78.74.74,0,0,0,.68.75s.52,0,1.13.15a4.66,4.66,0,0,1,1.54.54,10.4,10.4,0,0,1,3.62,6.7c.13,1.31-.84,2.77-1.45,4.54-.4,1.19-1.37,3.64-1.37,3.64a.79.79,0,0,0,.34,1,.69.69,0,0,0,.94-.37s0,0,0,0,1-2.42,1.4-3.71c.49-1.45,1.74-3.13,1.53-5.23a11.86,11.86,0,0,0-4.18-7.77,4.63,4.63,0,0,0-2.15-.81,12.57,12.57,0,0,0-1.28-.17Z" transform="translate(-8.07 -6.06)"/><path class="cls-12" d="M142,119.62a2.9,2.9,0,0,0-2.71,2.52s-1.29,7.25-1.91,16.07-.79,19.17,2.32,26.48c3.76,8.82,11.6,15.23,19.67,18.48,10,4,22,4.5,32.09,0A34.8,34.8,0,0,0,209,163.89c2.58-6.9,2.27-16.44,1.62-24.56s-1.88-14.76-1.88-14.76a2.85,2.85,0,0,0-3.28-2.46,3.06,3.06,0,0,0-2.28,3.55.3.3,0,0,1,0,.1s1.16,6.34,1.79,14.1.54,17-1.23,21.74c-2.53,6.79-8.25,13.07-14.5,15.89-8.41,3.8-19.2,3.47-27.94,0-6.86-2.77-13.6-8.48-16.51-15.32-2.13-5-2.41-15-1.82-23.46s1.82-15.38,1.82-15.38a3.06,3.06,0,0,0-2.19-3.61,3.47,3.47,0,0,0-.64-.06Z" transform="translate(-8.07 -6.06)"/><path class="cls-13" d="M144.41,161l-2.61,7.71c.56.9,1.16,1.77,1.79,2.6l2.36-6.94a22.68,22.68,0,0,1-1.13-2.26C144.67,161.78,144.54,161.41,144.41,161Z" transform="translate(-8.07 -6.06)"/><path class="cls-14" d="M405.15,245.85c10.05,0,20.83,9.67,18.15,20.84l-18,74.89c-2.68,11.17-8.09,20.83-18.15,20.83H261.82c-10,0-15.54-9.64-18.14-20.83L226.3,267c-2.61-11.19,8.1-20.82,18.15-20.84l160.7-.33ZM393.32,281a5.76,5.76,0,0,0-5.55,4.84l-10.86,55.27a6.1,6.1,0,0,0,4.35,7.24,5.64,5.64,0,0,0,6.69-4.7l10.86-55.27a6.1,6.1,0,0,0-4.35-7.24,5.55,5.55,0,0,0-1.14-.14Zm-137,0a5.73,5.73,0,0,0-1.14.14,6.1,6.1,0,0,0-4.35,7.24l10.86,55.27a5.65,5.65,0,0,0,6.7,4.7,6.1,6.1,0,0,0,4.35-7.24L261.85,285.8a5.77,5.77,0,0,0-5.56-4.85Zm100,1.32a5.88,5.88,0,0,0-5.64,6.11v53.95a5.66,5.66,0,1,0,11.29,0V288.38A5.88,5.88,0,0,0,356.33,282.27Zm-31.52,0a5.88,5.88,0,0,0-5.65,6.11v53.95a5.67,5.67,0,1,0,11.3,0V288.38A5.88,5.88,0,0,0,324.81,282.27Zm-31.53,0a5.88,5.88,0,0,0-5.64,6.11v53.95a5.66,5.66,0,1,0,11.29,0V288.38A5.88,5.88,0,0,0,293.28,282.27Z" transform="translate(-8.07 -6.06)"/><path class="cls-15" d="M226.53,268l.74,3.2h195L423,268Z" transform="translate(-8.07 -6.06)"/><path class="cls-16" d="M428.33,240h-207c-5.21,0-9.41,4.54-9.41,10.18v7.62c0,5.64,4.2,10.18,9.41,10.18h207c5.21,0,9.41-4.54,9.41-10.18v-7.62C437.74,244.54,433.54,240,428.33,240Z" transform="translate(-8.07 -6.06)"/><path class="cls-17" d="M376.32,240l9.56,14.22a7.17,7.17,0,0,0,10.53,1.8l1.52-1.19a8.56,8.56,0,0,0,1.66-11.37L397.26,240Z" transform="translate(-8.07 -6.06)"/><path class="cls-2" d="M340.84,185.16l46.46,69.06a7.16,7.16,0,0,0,10.52,1.8l1.52-1.19A8.54,8.54,0,0,0,401,243.47l-46.46-69.06a7.16,7.16,0,0,0-10.52-1.8l-1.52,1.19A8.53,8.53,0,0,0,340.84,185.16Z" transform="translate(-8.07 -6.06)"/><path class="cls-17" d="M252.36,240,250,243.47a8.54,8.54,0,0,0,1.66,11.36l1.52,1.19a7.16,7.16,0,0,0,10.52-1.8L273.3,240Z" transform="translate(-8.07 -6.06)"/><path class="cls-2" d="M308.78,185.17l-46.46,69.05A7.16,7.16,0,0,1,251.8,256l-1.52-1.19a8.53,8.53,0,0,1-1.66-11.36l46.45-69.05a7.17,7.17,0,0,1,10.53-1.81l1.51,1.19A8.55,8.55,0,0,1,308.78,185.17Z" transform="translate(-8.07 -6.06)"/><path class="cls-9" d="M134.92,157.3a4.48,4.48,0,0,0,.12,3.2,3.7,3.7,0,0,0,4.65,2.05,1.06,1.06,0,0,0,.46-.13,4.31,4.31,0,0,0,1.93-5.47,3.79,3.79,0,0,0-5.16-2,4.15,4.15,0,0,0-2,2.37Zm2.34.92a1.45,1.45,0,0,1,.73-.83,1.28,1.28,0,0,1,1.81.71,1.49,1.49,0,0,1-.71,1.86,1.29,1.29,0,0,1-1.77-.61,1.53,1.53,0,0,1-.06-1.13Z" transform="translate(-8.07 -6.06)"/><path class="cls-18" d="M143.26,135.47a13.81,13.81,0,0,0-5.9,2.85c-.61,8.81-.77,19.09,2.33,26.37,3.35,7.85,9.94,13.79,17,17.29a25.55,25.55,0,0,0,3.13-5.18c-6.34-3-12.33-8.32-15-14.67-2.14-5-2.41-15-1.82-23.46C143.08,137.57,143.17,136.51,143.26,135.47Z" transform="translate(-8.07 -6.06)"/><path class="cls-10" d="M137.76,154.54a3.67,3.67,0,0,0-1.49.39h0a4.36,4.36,0,0,0-1.88,5.57,3.69,3.69,0,0,0,4.64,2.05,1.14,1.14,0,0,0,.47-.13h0a4.29,4.29,0,0,0,1.92-5.47A3.88,3.88,0,0,0,137.76,154.54Zm.62,2.78a1.39,1.39,0,0,1,.76.78,1.49,1.49,0,0,1-.7,1.86,1.29,1.29,0,0,1-1.77-.61,1.49,1.49,0,0,1,.66-2A1.3,1.3,0,0,1,138.38,157.32Z" transform="translate(-8.07 -6.06)"/><path class="cls-14" d="M142,118.05a2.9,2.9,0,0,0-2.71,2.52s-1.29,7.24-1.91,16.07-.79,19.17,2.32,26.48c3.76,8.81,11.6,15.23,19.67,18.48,10,4,22,4.5,32.09,0A34.73,34.73,0,0,0,209,162.31c2.57-6.9,2.27-16.43,1.62-24.55S208.75,123,208.75,123a2.84,2.84,0,0,0-3.27-2.47,3,3,0,0,0-2.29,3.54.43.43,0,0,1,0,.11s1.16,6.35,1.79,14.11.54,17-1.22,21.73a29.52,29.52,0,0,1-14.51,15.9c-8.41,3.8-19.2,3.47-27.94,0-6.86-2.76-13.6-8.48-16.51-15.31-2.13-5-2.41-15-1.82-23.46s1.83-15.38,1.83-15.38a3.07,3.07,0,0,0-2.2-3.61,2.32,2.32,0,0,0-.64-.06Z" transform="translate(-8.07 -6.06)"/></svg>