<?xml version="1.0" encoding="utf-8"?>
<!-- Svg Vector Icons : http://www.onlinewebfonts.com/icon -->
<!DOCTYPE svg PUBLIC "-//W3C//DTD SVG 1.1//EN" "http://www.w3.org/Graphics/SVG/1.1/DTD/svg11.dtd">
<svg version="1.1" xmlns="http://www.w3.org/2000/svg" xmlns:xlink="http://www.w3.org/1999/xlink" x="0px" y="0px" viewBox="0 0 1000 1000" enable-background="new 0 0 1000 1000" xml:space="preserve">
<metadata> Svg Vector Icons : http://www.onlinewebfonts.com/icon </metadata>
<g><g transform="translate(0.000000,511.000000) scale(0.100000,-0.100000)"><path d="M4597.4,4993c-92.1-9.8-268.5-41.2-392-68.6c-1264.1-284.2-2285.1-1230.8-2655.5-2465.4c-119.5-395.9-139.1-552.7-139.1-1099.5c2-507.6,21.6-703.6,111.7-1117.1C1887-1433.2,3060.9-3204.9,4752.2-4627.7c245-205.8,227.3-201.9,395.9-66.6C6427.8-3661.5,7572.4-2183.8,8117.2-857c429.2,1044.6,576.2,2146,397.8,2998.5C8238.7,3480,7211.8,4559.8,5898.7,4896.9C5520.5,4994.9,4965.8,5036.1,4597.4,4993z M5420.5,4218.8c531.1-90.2,1038.7-344.9,1434.6-713.4c339-317.5,595.8-709.5,742.8-1136.7c92.1-264.6,133.3-493.9,147-803.5c31.4-811.3-254.8-1534.5-832.9-2108.7c-392-388-899.6-654.6-1464-764.3c-243-49-756.5-49-999.5,0C3292.2-1080.5,2441.6-239.7,2190.7,920.5c-50.9,233.2-49,840.7,2,1075.9c123.5,570.3,368.4,1023,776.1,1432.6c456.6,456.6,960.3,709.4,1626.6,809.4C4740.4,4260,5252,4248.2,5420.5,4218.8z"/><path d="M3895.8,2404.1c-586-282.2-1064.2-517.4-1064.2-523.3c0-7.8,56.8-47,127.4-88.2l127.4-74.5v-358.6V998.9l-68.6-113.7l-68.6-113.7l64.7-13.7c66.6-15.7,268.5,2,268.5,21.6c0,5.9-27.4,56.8-58.8,109.8l-58.8,98v341c0,262.6,5.9,337.1,25.5,329.2c11.8-5.9,115.6-62.7,229.3-127.4l205.8-119.5l33.3,62.7c80.3,160.7,319.4,309.7,613.4,384.1c237.1,60.7,401.8,80.3,713.4,80.3c582.1,0,1042.6-131.3,1244.5-354.7c39.2-43.1,80.3-100,92.1-127.4l17.7-51l64.7,37.2c33.3,19.6,215.6,123.5,401.7,231.3c184.2,107.8,337.1,199.9,337.1,205.8c0,15.7-2138.1,1038.7-2165.6,1036.7C4967.8,2915.6,4479.8,2684.3,3895.8,2404.1z"/><path d="M4671.9,1820c-390-45.1-733-174.4-848.6-319.4l-60.8-76.4l-5.9-491.9c-3.9-272.4,0-533.1,5.9-582.1c66.6-448.8,1487.5-631,2185.2-278.3C6032,115,6114.3,173.8,6147.6,215l56.8,70.5l2,439c2,780,9.8,711.4-88.2,807.4c-166.6,168.6-564.4,282.2-1036.7,295.9C4938.4,1833.8,4754.2,1829.8,4671.9,1820z M5581.2,626.5c209.7-54.9,378.2-133.3,437-203.8c43.1-50.9,45.1-62.7,21.6-99.9c-47-70.6-301.8-186.2-513.5-231.3c-280.3-60.7-797.7-60.7-1077.9,0C4236.8,136.6,3982,252.2,3935,322.8c-23.5,35.3-21.6,47,15.7,94.1C4023.2,508.9,4246.6,601,4521,654C4744.4,697.1,5381.3,681.4,5581.2,626.5z"/></g></g>
</svg>