<svg id="Layer_1" data-name="Layer 1" xmlns="http://www.w3.org/2000/svg" viewBox="0 0 488.7 493.77"><defs><style>.cls-1{fill:#baebf7;}.cls-2{fill:#97dbb3;}.cls-3{fill:#c5ead4;}.cls-4{fill:#74843a;}.cls-5{fill:#9fba41;}.cls-6{fill:#a07040;}.cls-7{fill:#a0a092;}.cls-8{fill:#ffed8f;}.cls-9{fill:#ddb961;}.cls-10{fill:#606d11;}</style></defs><path class="cls-1" d="M508.45,256c0,136.35-109.4,246.88-244.35,246.88S19.74,392.35,19.74,256,129.14,9.11,264.1,9.11,508.45,119.65,508.45,256" transform="translate(-19.74 -9.11)"/><path class="cls-2" d="M392,409.48H136.16a31,31,0,0,1-31-31V115.26a31,31,0,0,1,31-31H392a31,31,0,0,1,31,31V378.51A31,31,0,0,1,392,409.48Z" transform="translate(-19.74 -9.11)"/><path class="cls-3" d="M353.26,99.77h0a15.5,15.5,0,0,1-15.51,15.49H252.47A15.5,15.5,0,0,1,237,99.77H190.44a15.49,15.49,0,0,1-15.51-15.49h0A15.49,15.49,0,0,1,190.44,68.8h69.78a15.5,15.5,0,0,1,15.51,15.48h62A15.5,15.5,0,0,1,353.26,99.77Z" transform="translate(-19.74 -9.11)"/><path class="cls-4" d="M430.8,289.47V425H89.64V266.24a42.62,42.62,0,0,1,42.65-42.58h0a42.5,42.5,0,0,1,19.38,4.65v-24a42.62,42.62,0,0,1,42.64-42.59h0A42.62,42.62,0,0,1,237,204.3v29.09a42.51,42.51,0,0,1,27.14-9.73h0a42.47,42.47,0,0,1,21.58,5.86,42.63,42.63,0,0,1,40.44-29.09h0A42.61,42.61,0,0,1,368.77,243v8.53a42.47,42.47,0,0,1,19.38-4.66h0A42.62,42.62,0,0,1,430.8,289.47Z" transform="translate(-19.74 -9.11)"/><path class="cls-5" d="M194.08,111.23l16.73,195a31,31,0,0,1-30.9,33.62H115.68a31,31,0,0,1-30.9-33.62l16.73-194.95A46.43,46.43,0,0,1,147.79,68.8h0A46.43,46.43,0,0,1,194.08,111.23Z" transform="translate(-19.74 -9.11)"/><path class="cls-6" d="M153.61,140.42V419.16a5.82,5.82,0,0,1-11.63,0V140.42a5.82,5.82,0,0,1,11.63,0Z" transform="translate(-19.74 -9.11)"/><path class="cls-7" d="M204,357.22v61.94a5.82,5.82,0,0,1-11.63,0V357.22a5.82,5.82,0,0,1,11.63,0Zm118.24-5.81a5.82,5.82,0,0,0-5.82,5.81v61.94a5.82,5.82,0,0,0,11.63,0V357.22A5.81,5.81,0,0,0,322.25,351.41Zm85.28-209.06H361a21.34,21.34,0,0,0-21.32,21.3v29a5.82,5.82,0,0,0,11.63,0v-29A9.7,9.7,0,0,1,361,154h17.45V411.42a5.82,5.82,0,0,0,11.63,0V154h17.44a9.7,9.7,0,0,1,9.7,9.68v29a5.82,5.82,0,0,0,11.63,0v-29A21.34,21.34,0,0,0,407.53,142.35Z" transform="translate(-19.74 -9.11)"/><path class="cls-8" d="M438.55,200.43h0a15.51,15.51,0,0,1-31,0h0a15.51,15.51,0,0,1,31,0Zm-93-15.49A15.49,15.49,0,0,0,330,200.43h0a15.51,15.51,0,0,0,31,0h0A15.49,15.49,0,0,0,345.51,184.94Z" transform="translate(-19.74 -9.11)"/><path class="cls-9" d="M171.06,355.28v-31a7.75,7.75,0,0,1,7.75-7.74H341.63a7.75,7.75,0,0,1,7.75,7.74v31a7.75,7.75,0,0,1-7.75,7.75H178.81A7.75,7.75,0,0,1,171.06,355.28Zm178.32,19.36H171.06a5.81,5.81,0,1,0,0,11.62H349.38a5.81,5.81,0,1,0,0-11.62Z" transform="translate(-19.74 -9.11)"/><path class="cls-10" d="M438.55,419.16a5.82,5.82,0,0,1-5.82,5.81h-345a5.81,5.81,0,1,1,0-11.61h345A5.81,5.81,0,0,1,438.55,419.16Z" transform="translate(-19.74 -9.11)"/></svg>