<?xml version="1.0" encoding="iso-8859-1"?>
<!-- Generator: Adobe Illustrator 19.0.0, SVG Export Plug-In . SVG Version: 6.00 Build 0)  -->
<svg version="1.1" id="Layer_1" xmlns="http://www.w3.org/2000/svg" xmlns:xlink="http://www.w3.org/1999/xlink" x="0px" y="0px"
	 viewBox="0 0 496.2 496.2" style="enable-background:new 0 0 496.2 496.2;" xml:space="preserve">
<path style="fill:#4ABC96;" d="M496.2,248.1C496.2,111.1,385.1,0,248.1,0S0,111.1,0,248.1s111.1,248.1,248.1,248.1
	S496.2,385.1,496.2,248.1z"/>
<path style="fill:#D3C624;" d="M248.1,496.2c70.2,0,133.6-29.2,178.7-76c-2.8-15.1-5.6-28.9-8.3-37.4
	c-8.5-27.3-81.2-49.3-170.8-49.3s-161.5,22-170,49.3c-2.6,8.5-5.5,22.2-8.3,37.4C114.5,467,177.9,496.2,248.1,496.2z"/>
<path style="fill:#334D5C;" d="M157.4,474.8v4.2c28.1,11.1,58.7,17.1,90.7,17.1s62.6-6.1,90.7-17.1v-4.2H157.4z"/>
<g>
	<path style="fill:#B7A921;" d="M226.6,384.8v110.5c4,0.3,8,0.6,12,0.7V384.8H226.6z"/>
	<path style="fill:#B7A921;" d="M269.6,384.8h-12V496c4-0.2,8-0.4,12-0.7V384.8z"/>
</g>
<g>
	<path style="fill:#3A3A38;" d="M227.2,424.1h-35.1c-2.3,0-4.2,1.9-4.2,4.2v60.6c14.1,3.5,28.6,5.8,43.5,6.8v-67.4
		C231.4,425.9,229.5,424.1,227.2,424.1z"/>
	<path style="fill:#3A3A38;" d="M231.4,463.4c0,2.3-1.9,4.2-4.2,4.2h-35.1c-2.3,0-4.2-1.9-4.2-4.2V434c0-2.3,1.9-4.2,4.2-4.2h35.1
		c2.3,0,4.2,1.9,4.2,4.2V463.4z"/>
</g>
<path style="fill:#444442;" d="M229.1,464.3c0,0.6-0.5,1.1-1.1,1.1h-36.7c-0.6,0-1.1-0.5-1.1-1.1v-10c0-0.6,0.5-1.1,1.1-1.1h36.8
	c0.6,0,1.1,0.5,1.1,1.1v10H229.1z"/>
<path style="fill:#9CB797;" d="M224.7,461.9c0,0.4-0.3,0.6-0.6,0.6h-28.9c-0.4,0-0.6-0.3-0.6-0.6v-5c0-0.4,0.3-0.6,0.6-0.6h28.9
	c0.4,0,0.6,0.3,0.6,0.6V461.9z"/>
<g>
	<path style="fill:#3A3A38;" d="M227.6,427.6c0,0.9-0.8,1.7-1.7,1.7h-6.5c-0.9,0-1.7-0.8-1.7-1.7V418c0-0.9,0.8-1.7,1.7-1.7h6.5
		c0.9,0,1.7,0.8,1.7,1.7V427.6z"/>
	<path style="fill:#3A3A38;" d="M223.5,427.2c0,0.6-0.5,1-1,1l0,0c-0.6,0-1-0.5-1-1v-30.9c0-0.6,0.5-1,1-1l0,0c0.6,0,1,0.5,1,1
		V427.2z"/>
	<path style="fill:#3A3A38;" d="M224.9,396.1c0,1.5-1.1,1.7-2.6,1.7c-1.4,0-2.6-0.2-2.6-1.7s1.1-1.7,2.6-1.7
		S224.9,394.6,224.9,396.1z"/>
</g>
<path style="fill:#545454;" d="M225,433.1c0,13.4-2.7,17.7-15.3,17.7c-12.5,0-15.3-4.7-15.3-17.7c0-5.6,6.8-5.2,15.3-5.2
	C218.2,428,225,427.5,225,433.1z"/>
<path style="fill:#4C4C4B;" d="M221.7,434.5c0,10.5-2.1,13.9-11.9,13.9c-9.8,0-11.9-3.7-11.9-13.9c0-4.4,5.3-4,11.9-4
	S221.7,430.1,221.7,434.5z"/>
<g>
	<path style="fill:#172023;" d="M426.8,420.1c-2.8-15.1-5.6-28.9-8.3-37.4c-5-16-32.2-30.3-71.9-39.3v132.3
		c20.4-8.8,39.4-20.4,56.5-34.1C411.5,435.1,419.4,427.8,426.8,420.1z"/>
	<path style="fill:#172023;" d="M77.7,382.8c-2.6,8.5-5.5,22.2-8.3,37.4c7.4,7.7,15.3,14.9,23.7,21.6c17.1,13.7,36.1,25.2,56.5,34.1
		V343.4C109.8,352.4,82.7,366.7,77.7,382.8z"/>
</g>
<g>
	<path style="fill:#D6D6D6;" d="M329.6,340.1v142.4c11.6-3.7,27-11.2,27-11.2V345.9C348.2,343.7,339.2,341.8,329.6,340.1z"/>
	<path style="fill:#D6D6D6;" d="M166.6,340c-9.6,1.7-18.6,3.6-27,5.8v125.4c0,0,12.8,6.3,27,11.2V340z"/>
</g>
<path style="fill:#172023;" d="M353.1,311.1c-24.6-20.7-70.9,5-104.9,5s-80.3-25.7-104.9-5c-16,13.4-14,52.7,23.5,63.5
	c58.1,16.8,79.5,25.2,81.4,25.9v0.1c0,0,0,0,0.1,0h0.1v-0.1c1.9-0.7,23.2-9.2,81.4-25.9C367.1,363.8,369.1,324.5,353.1,311.1z"/>
<path style="fill:#E2A379;" d="M287,282.1h-77.8c12.1,36.6,1,53.3,1,53.3s11.9,13.2,37.9,13.2s37.9-13.2,37.9-13.2
	S274.9,318.7,287,282.1z"/>
<g>
	<path style="fill:#F4B382;" d="M336.4,175.2c0-92.4-39.5-113.6-88.3-113.6c-48.7,0-88.3,21.2-88.3,113.6c0,31.3,6.2,55.8,15.5,74.7
		c20.4,41.6,55.7,56.1,72.8,56.1s52.4-14.5,72.8-56.1C330.2,231,336.4,206.5,336.4,175.2z"/>
	<path style="fill:#F4B382;" d="M170.4,238.7c-8.4,1.4-14.4,0.1-19.1-27.7s1.7-31.5,10.1-32.9L170.4,238.7z"/>
	<path style="fill:#F4B382;" d="M325.9,238.7c8.4,1.4,14.3,0.1,19.1-27.7c4.8-27.8-1.7-31.5-10.1-32.9L325.9,238.7z"/>
</g>
<path style="fill:#E5A173;" d="M274.8,257c0,2.6-11.9,9.5-26.7,9.5s-26.7-7-26.7-9.5c0-1.6,8.5-6.1,14.1-6.9
	c3.6-0.5,12.5,2.9,12.5,2.9s8.8-3.4,12.4-2.9C266.2,250.9,274.8,257,274.8,257z"/>
<path style="fill:#D89364;" d="M274.8,257c0,2.6-11.9,12.4-26.7,12.4s-26.7-9.9-26.7-12.4c0,0,10.9,1.3,26.7,1.3
	S274.8,257,274.8,257z"/>
<g>
	<path style="fill:#47200D;" d="M336.4,175.2c0-92.4-30.3-116.1-88.3-116.1s-88.3,23.7-88.3,116.1c0,0,16.3-34.1,28.3-53.1
		s38-18.3,38-18.3h49c0,0,27,0.3,34.5,18.3L336.4,175.2z"/>
	<path style="fill:#47200D;" d="M165.5,140.8c-4.2,10.9-5.6,24.4-5.6,37.5c0,0,8.8-1.9,8.8,2.6l2.8,27.6l3.9-1.9
		c-0.2-23,4.9-83.5,4.9-83.5L165.5,140.8z"/>
	<path style="fill:#47200D;" d="M330.8,140.8c4.2,10.9,5.6,24.4,5.6,37.5c0,0-8.8-1.9-8.8,2.6l-2.8,27.6l-3.9-1.9
		c0.2-23-4.9-81.7-4.9-81.7L330.8,140.8z"/>
</g>
<path style="fill:#191919;" d="M247.9,40.4c-60.8,0-113.4,37.5-113,38c3.4,4.4,27.4,30.7,27.4,30.7l1.2,15.6c0,0-0.2,14.5,13.9,14.5
	s31.6,4,70.6,4s56.3-4,70.6-4c14.4,0,14.2-14.9,14.2-14.9l0.9-15.2c6.9-6.8,23.6-25.8,27.2-30.4C361.5,78.1,308.8,40.4,247.9,40.4z"
	/>
<path style="fill:#2872BC;" d="M333.9,109.1l0.1-0.1c-14.5-6.1-46.2-17-85.9-17c-39.8,0-71.4,11-86,17.1c0.1,0.1,0.2,0.1,0.2,0.1
	l1.1,15.6c15.1-8.3,46-16.7,84.7-16.7s69.6,8.3,84.7,16.7L333.9,109.1z"/>
<path style="fill:#F7EEC1;" d="M269.4,68.3c2.9-4.3-0.1-11.7-7-9.3c-6.6,2.4-14-2.7-14.3-2.9l0,0l0,0l0,0l0,0l0,0l0,0l0,0l0,0
	c-0.3,0.2-7.6,5.2-14.3,2.9c-6.9-2.4-9.9,4.9-7,9.3c3.2,4.7,3.7,7,3.7,7.9c0,2.5-9.2,7.8-2,19.5c2.7,4.3,4.5,3.7,14.5,4.7
	c0,0,4.5,1.6,5.1,4.6v-1.4v1.4c0.6-3,5.1-4.6,5.1-4.6c10-1,11.8-0.4,14.5-4.7c7.2-11.7-2-17-2-19.5
	C265.7,75.4,266.2,73.1,269.4,68.3z"/>
<path style="fill:#D3C624;" d="M260.9,76.6c-0.2-0.6-0.7-1.1-1.4-1.2l-6.8-1l-3.1-6.2c-0.6-1.2-2.5-1.2-3.1,0l-3.1,6.2l-6.8,1
	c-0.7,0.1-1.2,0.6-1.4,1.2s0,1.3,0.4,1.8l4.9,4.8l-1.2,6.8c-0.1,0.7,0.2,1.3,0.7,1.7c0.5,0.4,1.3,0.4,1.8,0.1l6.1-3.2l6.1,3.2
	c0.3,0.1,0.5,0.2,0.8,0.2c0.4,0,0.7-0.1,1-0.3c0.5-0.4,0.8-1.1,0.7-1.7l-1.2-6.8l4.9-4.8C260.9,77.9,261.1,77.2,260.9,76.6z"/>
<g>
	<path style="fill:#FFFFFF;" d="M311.5,337.4L311.5,337.4L311.5,337.4L311.5,337.4z"/>
	<path style="fill:#FFFFFF;" d="M298.5,335.9L298.5,335.9L298.5,335.9z"/>
</g>
<g>
</g>
<g>
</g>
<g>
</g>
<g>
</g>
<g>
</g>
<g>
</g>
<g>
</g>
<g>
</g>
<g>
</g>
<g>
</g>
<g>
</g>
<g>
</g>
<g>
</g>
<g>
</g>
<g>
</g>
</svg>
