<?xml version="1.0" encoding="iso-8859-1"?>
<!-- Generator: Adobe Illustrator 19.0.0, SVG Export Plug-In . SVG Version: 6.00 Build 0)  -->
<svg version="1.1" id="Layer_1" xmlns="http://www.w3.org/2000/svg" xmlns:xlink="http://www.w3.org/1999/xlink" x="0px" y="0px"
	 viewBox="0 0 474.085 474.085" style="enable-background:new 0 0 474.085 474.085;" xml:space="preserve">
<circle style="fill:#ACDDDE;" cx="237.042" cy="236.966" r="236.966"/>
<path style="fill:#9ACA42;" d="M237.016,474.085c100.781,0,186.811-62.944,221.071-151.635c-61.87-37.302-142.318-55-230.279-55
	c-80.886,0-155.414,14.982-214.998,46.39C44.712,407.044,133.006,474.085,237.016,474.085z"/>
<path style="fill:#6F933D;" d="M385.414,183.062c0-34.016-20.527-61.586-61.582-61.586c-5.815,0-11.162,0.606-16.149,1.65
	c-9.759-15.749-27.139-26.065-52.209-26.065c-41.062,0-61.589,27.569-61.589,61.586c0,0.685,0.071,1.343,0.079,2.024
	c-8.34,3.446-15.113,8.576-20.408,14.892c-7.128-2.522-15.221-3.97-24.408-3.97c-41.055,0-61.582,27.573-61.582,61.589
	c0,31.476,19.09,57.369,53.114,61.058c8.209,21.848,27.996,37.144,57.298,37.144c20.793,0,36.744-7.742,47.225-20.018
	c10.267,5.665,22.66,8.962,37.126,8.962c45.582,0,71.348-31.943,71.348-71.348c0-3.6-0.266-7.113-0.666-10.57
	C373.95,228.423,385.414,207.428,385.414,183.062z"/>
<g>
	<path style="fill:#49341B;" d="M185.717,380.219c0,0-5.8-13.433,0.516-29.302c6.316-15.869,53.036-72.021,53.036-72.021
		s85.754-92.466,90.304-92.466c4.546,0,8.239,3.689,8.239,8.239l-77.99,87.883c0,0-34.319,59.823-37.979,69.589
		c-3.663,9.766,0.498,28.078,0.498,28.078C222.337,386.962,185.717,386.962,185.717,380.219z"/>
	<path style="fill:#49341B;" d="M239.448,304.654c-3.525,0-6.993-1.714-9.089-4.883l-91.411-76.354
		c-2.204-3.338-1.295-7.835,2.047-10.043c3.33-2.211,107.523,74.39,107.523,74.39c3.323,5.01,1.949,11.764-3.072,15.083
		C243.602,304.074,241.51,304.654,239.448,304.654z"/>
	<path style="fill:#49341B;" d="M168.942,240.958c0-2.275,1.108-4.505,3.143-5.856l24.943-27.539
		c2.152-1.418,5.048-0.831,6.469,1.317c1.426,2.144-23.674,37.919-23.674,37.919c-3.229,2.14-7.577,1.253-9.714-1.979
		C169.313,243.63,168.942,242.286,168.942,240.958z"/>
	<path style="fill:#49341B;" d="M274.187,248.176c-2.29-2.297-16.849-99.591-16.849-99.591c0.745-3.596,4.254-5.919,7.843-5.182
		c3.592,0.718,25.837,99.692,25.837,99.692c-1.1,5.407-6.368,8.898-11.775,7.79C277.244,250.488,275.519,249.504,274.187,248.176z"
		/>
</g>
<g>
</g>
<g>
</g>
<g>
</g>
<g>
</g>
<g>
</g>
<g>
</g>
<g>
</g>
<g>
</g>
<g>
</g>
<g>
</g>
<g>
</g>
<g>
</g>
<g>
</g>
<g>
</g>
<g>
</g>
</svg>
