<svg id="publicdomainvectors.org" xmlns="http://www.w3.org/2000/svg" viewBox="0 0 522.28 660"><defs><style>.cls-1{fill:#67c9d0;}.cls-2{fill:#fff;}.cls-3{fill:#efc7b1;}.cls-4{fill:#010101;}</style></defs><path class="cls-1" d="M605,356.73c0,134.66-116.22,243.81-259.59,243.81S85.83,491.39,85.83,356.73s116.23-243.8,259.59-243.8S605,222.08,605,356.73" transform="translate(-85.83)"/><path class="cls-2" d="M605.12,376.15h0c-8.84-3.72-86.1-7.55-199.07-8.55,7.08,3.83,16.51,7,29,8.55Z" transform="translate(-85.83)"/><path class="cls-2" d="M348.35,367.35h-6.64c-.78,2.67-2.92,4.63-9,4.63-8.29-.15-59.95.43-67.07,0-5.61,0-7.87-1.65-8.81-4-94.35,1.4-157.29,4.82-165.22,8.16H322.65c12.8-1.55,22.39-4.85,29.55-8.8h-3.85" transform="translate(-85.83)"/><path class="cls-3" d="M397.89,454.82c0,.15.06.3.1.45,1.11.76,2.19,1.54,3.29,2.31.61.44,1.24.86,1.87,1.28a12.51,12.51,0,0,0,2,1.09,6.51,6.51,0,0,1-2.25-.71,14.31,14.31,0,0,1-2-1.2,18,18,0,0,1-1.8-1.44c-.37-.34-.72-.7-1.07-1.06l.41,1.81a31.2,31.2,0,0,1,1.17,8.1,85.48,85.48,0,0,1-1.62,9c-1.82,8.73-4.75,22.88-3.17,28.75,1.16-.64,2.67-1.66,3.84-5.4.58-1.88,11.61-21.17,21.42-36.85l.22-.35.19-.06c5-8,8.94-13.88,11.64-17.42.09-.12.17-.22.25-.34l-.06,0,2-2.46a133.46,133.46,0,0,1,13.45-14.21c1.87-1.76,3.35-3.15,4.44-4.4,2.6-3,2.49-4.33,2.19-4.86-.39-.69-2.27-2.22-11.37-1.52-5.7.44-17.66,4.66-26.33,17.71l-.16.23-.21.13a5.72,5.72,0,0,0,.61.85,13,13,0,0,0,1.67,1.55,27.38,27.38,0,0,0,4,2.46,26.9,26.9,0,0,1-4.17-2.23,13.24,13.24,0,0,1-1.84-1.5,9.93,9.93,0,0,1-.72-.86,40.08,40.08,0,0,0-9.47,8l-.24.28,0,0a53.29,53.29,0,0,0-8.31,12.79" transform="translate(-85.83)"/><path class="cls-3" d="M403.18,441.89a49,49,0,0,0-7.1,1.45c.29,2.89.65,5.39,1,7.57a56.78,56.78,0,0,1,6.06-9" transform="translate(-85.83)"/><path class="cls-3" d="M320.38,614.21c3.39.75,6.81,1.37,10.21,2.08s6.83,1.31,10.24,1.93c1.17.22,2.35.41,3.52.61.17-1.6.36-3.84.6-6.51,1.1-12.69,2.94-33.92,7.12-39.8,1.4-2,4.67-6.65,8.77-12.53,11-15.79,27.64-39.65,30.75-43.38,2.24-2.69,1.68-5.6,1.23-7.95-.28-1.48-.52-2.79,0-3.81-2.39-5.94.57-20.26,2.77-30.84.36-1.72.69-3.33,1-4.72-.32.08-.64.15-.95.24a11.17,11.17,0,0,0-2.32.87,11,11,0,0,1,2.21-1.14c.38-.16.77-.29,1.15-.44a32.33,32.33,0,0,0,.53-3.48,15.88,15.88,0,0,0-.28-3.47h-.1L395,462c-1.2.09-2.4.2-3.61.32,1.19-.21,2.38-.42,3.57-.61l1.8-.26h.07c-.2-1.08-.47-2.26-.77-3.6a108.44,108.44,0,0,1-2.36-13.78h0l-.11-1.26s0,0,0-.06h0v-.13c-.1-1-.18-2.12-.25-3.26a97.52,97.52,0,0,1,.43-13.78c.46-5.69.93-11.56-.87-12.65-.74-.45-2.22-.13-4.26.91-11.06,5.68-13.72,21-12.08,30.09l.05.27-.08.27v0a15.07,15.07,0,0,0,3.48,1.28,26.15,26.15,0,0,0,4.93.7,26.24,26.24,0,0,1-5-.42,16.3,16.3,0,0,1-3.55-1.06,15.44,15.44,0,0,0-.35,1.51l0,.16h0c-1.2,6.65.12,17.48.58,20.81l.15-.09a4.4,4.4,0,0,0,1.73,1.29,10.43,10.43,0,0,0,2.22.7,14.1,14.1,0,0,0,4.72.12,14.19,14.19,0,0,1-4.78.16,10.54,10.54,0,0,1-2.34-.58,5.91,5.91,0,0,1-1.6-.91c0,.19,0,.3,0,.32l0,.22-.05.22c-1,4-3,11.9-3.26,13.7.72,1.6,1.46,3.21,2.25,4.78a71.08,71.08,0,0,0,4.39,7.66,22.43,22.43,0,0,0,6.13,6.46,23.16,23.16,0,0,1-6.64-6.13,74.93,74.93,0,0,1-5-7.46c-1.07-1.81-2.06-3.65-3-5.5l-.56-.07c0-.19.07-.46.13-.76-.26-.5-.53-1-.79-1.51l-2-4c-.65-1.29-1.32-2.71-2-3.79l2.11-1.17c.79,1.49,1.26,2.79,1.85,4.17l1.42,3.41c.88-3.77,2.21-9,2.51-10.15-.27-1.76-1.84-12.79-.93-20.58a114.37,114.37,0,0,0-12.92,5.57,14.42,14.42,0,0,0,.72,1.41A67.42,67.42,0,0,1,367,467.6a17.4,17.4,0,0,0,1.52,3.55l-2.11,1.17c-.15-.24-.28-.48-.41-.72l-3.2.9,3-1.3a28,28,0,0,1-1.13-2.88c-.29-.83-.63-1.78-1.06-2.87-.35-.07-.7-.14-1.06-.18a5.1,5.1,0,0,0-2.73.32,5.08,5.08,0,0,1,2.75-.6c.29,0,.59,0,.88.05a72.89,72.89,0,0,0-4.44-9,14.76,14.76,0,0,1-.71-1.36h0l-.5-1.28c-1.74-4.44-2.66-10.37-3.56-16.11-1-6.44-2.27-14.45-4.53-15-.43-.1-1.72,0-4.37,3.28-11.55,14.27-4.2,29.33-2.61,32.2l.16.28c.33.59.66,1.14,1,1.63l.26.39,0,.09a11,11,0,0,0,3.39.09,18.37,18.37,0,0,0,5.28-1.52,18.49,18.49,0,0,1-5.24,1.81,11.16,11.16,0,0,1-3.51.08c-.89,4.56,2.71,14.92,8.58,21.1l.13.14a15.9,15.9,0,0,0,3.64.31,21.54,21.54,0,0,0,5.27-.95,21.72,21.72,0,0,1-5.25,1.24,15.83,15.83,0,0,1-3.37-.08l-.17.48c-.53,1.91,2.9,16.37,5.91,19.57l-.6.5a30.78,30.78,0,0,1,3.58.36,24,24,0,0,1,4.06,1,12.3,12.3,0,0,1,3.64,2,48.7,48.7,0,0,0-7.92-1.87c-1.33-.24-2.68-.42-4-.63l-.31-.05-.26.22c-.08-.08-.15-.2-.23-.29-1.09-.17-2.18-.34-3.29-.54a19.07,19.07,0,0,1,2.72-.23c-3-4.57-5.95-16.39-5.72-20-6.16-6.74-9.65-17-8.86-22.32-.12-.19-.24-.41-.37-.61l-.76.46c-11.2,6.67-23.49,13.67-29,13.44l1.42,1.2a44.13,44.13,0,0,0,4.2,2.05c1.86.81,3.76,1.55,5.68,2.22s3.87,1.3,5.85,1.82c1,.25,2,.47,3,.65a8.51,8.51,0,0,0,3.06,0,8.38,8.38,0,0,1-3.08.1c-1-.13-2-.31-3-.51-2-.43-4-1-6-1.56s-3.92-1.24-5.84-2l-.43-.17c2.47,1.87,5,3.67,7.65,5.35a91.37,91.37,0,0,0,9.21,5.22,55.63,55.63,0,0,0,9.94,3.86,56.27,56.27,0,0,1-10.15-3.47,94.49,94.49,0,0,1-9.5-4.88q-4.61-2.68-8.95-5.76a87.18,87.18,0,0,1-7-5.53c-6-3.33-13.21-12.13-16.29-19.14l-.06-.15a100.22,100.22,0,0,0-5-14.24c-.54.33-1.09.64-1.66.94a15.76,15.76,0,0,1-1.5.7,3.67,3.67,0,0,1-1.63.34,3.34,3.34,0,0,0,1.49-.59,14.66,14.66,0,0,0,1.3-.93c.54-.42,1.07-.88,1.59-1.34-3.46-7.42-8.39-14.52-15.9-19.39-8.51-5.51-19.94-4.87-25-2.69-1.52.65-1.88,1.2-1.9,1.32a.8.8,0,0,0,.15.17c4,3.55,16.17,14.33,20.23,25.11a202.57,202.57,0,0,1,6,20.24c1.1,4.32,2.15,8.39,3.2,11.61,1.63,5,.73,9-1.08,16.86-1.22,5.36-2.91,12.71-4.47,23.56-2.43,16.93,4.47,26.42,10,34.06,2.91,4,5.42,7.48,5.91,11.21,1.23,9.4-1.86,37.52-2.46,42.82,1.59.68,5.57,2.33,11.5,4.34,6.08,1.69,12.22,3.2,18.38,4.63ZM312.54,501a11.33,11.33,0,0,1,1.37,2.08,19.47,19.47,0,0,1,1.57,4.61,45.45,45.45,0,0,1,.93,9.49,82.33,82.33,0,0,1-.61,9.43q-.19,1.57-.45,3.15c.39-.76.81-1.51,1.25-2.25a38.14,38.14,0,0,1,15.91-14,63.55,63.55,0,0,1,20.7-5.86l-2.58.71c-.86.24-1.74.42-2.58.71-1.69.54-3.4,1-5,1.69a63,63,0,0,0-9.56,4.31,43,43,0,0,0-8.34,6,34.92,34.92,0,0,0-6.39,7.68,38.36,38.36,0,0,0-5.39,18.8,57,57,0,0,0,2.92,19.76,46.43,46.43,0,0,1-4.83-19.77,39.67,39.67,0,0,1,1.15-10.27,35.14,35.14,0,0,1,1.39-4.29c-.08-2.14-.08-4.27-.07-6.39,0-3.12.09-6.22.06-9.32a91.22,91.22,0,0,0-.35-9.22,27,27,0,0,0-.81-4.48,8.13,8.13,0,0,0-2.25-4,6.26,6.26,0,0,1,2,1.51M293.86,557l-.12,0-.38,10.28c-.15,4-.37,7.94-.58,11.9s-.47,7.93-.76,11.9l-.41,5.94c-.17,2-.29,4-.41,6-.27-4-.19-8-.12-11.93s.26-7.95.48-11.92.49-7.93.86-11.9c.33-3.42.64-6.85,1.14-10.26a21.36,21.36,0,0,1-7.26-3,27.24,27.24,0,0,1-6-5.17,15.39,15.39,0,0,1-3.67-6.72,30.84,30.84,0,0,0,5.07,5.5,46.68,46.68,0,0,0,5.94,4.48,28.17,28.17,0,0,0,6.65,3.22,14.08,14.08,0,0,0,7.48.39,10.73,10.73,0,0,1-7.94,1.35m12.67,28c-.09,2.89-.19,5.79-.39,8.67s-.38,5.78-.8,8.66l-.12-4.34,0-4.34c0-2.9.05-5.79.12-8.68s.19-5.78.39-8.67.37-5.78.7-8.66c.18,2.9.22,5.79.23,8.68s0,5.79-.1,8.68" transform="translate(-85.83)"/><path class="cls-3" d="M424,459.44c8.7-2.39,25.42-5.52,38.35-7.09,1.76-.21,3-2.75,3.47-4.06-2.75-4.39-19.88-8-29.87-6.21-.65.81-1.18,1.49-1.86,2.38-2.4,3.15-5.79,8.19-10.09,15" transform="translate(-85.83)"/><path class="cls-2" d="M371.08,227.32H387a2.9,2.9,0,0,1,2.16,1h.06c35.52-15.79,49.77-48,55.47-72.22,6.24-26.58-6.86-78.45-17.95-93.64-1.56.48-5.21.92-13.71,1.33-9.08.44-21.15.68-34,.68s-24.91-.24-34-.68c-8.4-.41-12.06-.84-13.66-1.31-11.08,15.2-24.17,67.05-17.93,93.62,5.69,24.24,19.94,56.43,55.47,72.22h.05a2.93,2.93,0,0,1,2.17-1m-55.45-73.87a56.27,56.27,0,0,1-1-6.12h-.53l15,0c0-.46-.07-.91-.08-1.38a25.58,25.58,0,0,1,.13-3.23,12.25,12.25,0,0,1,.29-1.75,9.85,9.85,0,0,1,.67-2l6.18,2.83a4.94,4.94,0,0,0-.28.71,6.32,6.32,0,0,0-.26,1.06,18.9,18.9,0,0,0-.28,2.5c0,.41,0,.84,0,1.27l108.29-.12a56.47,56.47,0,0,1-1.32,6.26c-5.9,26.35-20.06,57.36-53.51,72.86H369.15c-33.45-15.5-47.62-46.51-53.52-72.86" transform="translate(-85.83)"/><path class="cls-2" d="M379,62.8c21.76,0,38.83-.71,45-1.51H334c6.18.8,23.25,1.51,45,1.51" transform="translate(-85.83)"/><path class="cls-2" d="M336.3,375.26c.82-.05,1.63-.09,2.45-.12,4.62-.21,9.24-.34,13.85-.44,9.24-.19,18.48-.24,27.71-.21s18.48.16,27.71.41c4.61.14,9.23.3,13.84.53l.38,0c-18.31-4.58-28.11-13.18-33.26-20.22a35.29,35.29,0,0,1-6.68-15.67,3.68,3.68,0,0,1-2.15.69h-2.27a3.7,3.7,0,0,1-2.12-.66A35.46,35.46,0,0,1,369.09,355c-5.13,7-14.81,15.56-32.79,20.23" transform="translate(-85.83)"/><path class="cls-2" d="M422.73,375.58l-.88-.05c-4.61-.2-9.22-.33-13.84-.43-9.23-.19-18.46-.24-27.7-.21s-18.46.16-27.69.42c-4.61.13-9.22.29-13.83.53q-3.44.17-6.86.43c-1.62.34-3.31.65-5.06.92.53.1,1.06.17,1.59.23,1.14.14,2.29.24,3.43.34,2.3.18,4.6.32,6.9.44q6.91.35,13.83.53,13.85.38,27.69.41c9.24,0,18.47,0,27.7-.21,4.62-.1,9.23-.23,13.84-.43,2.31-.11,4.61-.23,6.92-.4,1.15-.08,2.29-.18,3.44-.31.49-.05,1-.12,1.46-.19a102.07,102.07,0,0,1-10.94-2" transform="translate(-85.83)"/><path class="cls-2" d="M428.77,378.15c-2.3.19-4.61.33-6.91.45q-6.92.34-13.84.53-13.86.38-27.71.41c-9.23,0-18.47,0-27.71-.21-4.61-.1-9.23-.23-13.85-.44-2.31-.1-4.61-.22-6.92-.39-1.16-.08-2.31-.18-3.47-.31-.57-.06-1.15-.14-1.73-.24a7.39,7.39,0,0,1-.89-.18,3.37,3.37,0,0,1-.46-.14,1.29,1.29,0,0,1-.27-.13l0,0-1.44.2.29.56c2.48,1,24,2,55.48,2,30.9,0,52.25-1,55.33-1.93v-.55l-.92-.12c-.5.08-1,.15-1.51.21-1.14.14-2.29.24-3.44.33" transform="translate(-85.83)"/><path class="cls-2" d="M387,232.56a1.08,1.08,0,0,0,1.11-1.05V230a1.08,1.08,0,0,0-1.11-1H371.08a1.08,1.08,0,0,0-1.11,1v1.53a1.08,1.08,0,0,0,1.11,1.05H387Z" transform="translate(-85.83)"/><path class="cls-2" d="M376,235.93V336.88a1.83,1.83,0,0,0,1.88,1.77h2.27a1.82,1.82,0,0,0,1.87-1.77V235.93a1.82,1.82,0,0,0-1.87-1.76h-2.27a1.83,1.83,0,0,0-1.88,1.76" transform="translate(-85.83)"/><path class="cls-2" d="M298.05,21.84c6.37,0,13.69-.69,16.23-.78l0-.61c-3.41.11-17.39,0-23.63-.25l0,1.58c1.95,0,4.6.06,7.45.06" transform="translate(-85.83)"/><path class="cls-2" d="M276.06,365.06c-1-82.05-6.28-236.65-6-241.27l.09-2.07-3.41-.4c-.42,3.16,2,203.65,2.45,243.81Z" transform="translate(-85.83)"/><path class="cls-2" d="M289.3,90.4l-3.37,0,0-1.61,3.37,0,1.27-67,0-1.58L290.85,9l-3.44-.05-1.65,86.81,3.44,0Z" transform="translate(-85.83)"/><path class="cls-2" d="M285.93,90.36l3.37,0c3.47,0,6.9,0,10,0a99.21,99.21,0,0,0,14.55-1.06v-.64c-.13,0-12,.16-24.54,0l-3.37,0Z" transform="translate(-85.83)"/><path class="cls-2" d="M332.18,163.57a98.85,98.85,0,0,0,9.54,21.59,87.73,87.73,0,0,0,14.69,18.66,83.72,83.72,0,0,0,9.27,7.61,81.15,81.15,0,0,0,10.42,6,72.1,72.1,0,0,1-18.42-14.74,84.64,84.64,0,0,1-12.9-19,94.3,94.3,0,0,1-7.6-21.29,74.14,74.14,0,0,1-1.66-11c-.1-1.39-.13-2.76-.1-4.11,0-.43,0-.86,0-1.27a18.9,18.9,0,0,1,.28-2.5,6.32,6.32,0,0,1,.26-1.06,4.94,4.94,0,0,1,.28-.71l-6.18-2.83a9.85,9.85,0,0,0-.67,2,12.25,12.25,0,0,0-.29,1.75,25.58,25.58,0,0,0-.13,3.23c0,.47.05.92.08,1.38.08,1.59.22,3.15.45,4.68a80.07,80.07,0,0,0,2.65,11.58" transform="translate(-85.83)"/><path class="cls-4" d="M608.12,376.15c0-1.83,0-5.23-76.9-8.19-35.91-1.38-80.53-2.3-129.08-2.7a44.62,44.62,0,0,1-11.74-10.93c-6.15-8.42-6.85-16.32-6.48-17.68l-.18,0V235.93a3.15,3.15,0,0,0-.54-1.76H387a2.74,2.74,0,0,0,2.82-2.66V230c0-.06,0-.11,0-.16,36.26-16,50.77-48.77,56.56-73.4,5.95-25.35-6.05-78.79-18.45-95.23,0-.89-.54-1.66-14.89-2.36-9.08-.44-21.15-.68-34-.68s-24.91.24-34,.68c-14.79.72-14.89,1.52-14.89,2.45-4.29,5.73-8.52,15.86-12,27.73a68.51,68.51,0,0,1-.49-10.5c0-5.81-1.24-57-1.24-57L318.24,20V5.65L317.06,5a2.28,2.28,0,0,0,.37-1.23V2.45A2.54,2.54,0,0,0,314.82,0H283.66a2.54,2.54,0,0,0-2.61,2.45V3.81A2.26,2.26,0,0,0,281.37,5l-1.32.69V20l1.86,1.55s-1.24,51.16-1.24,57,.21,14.15-3.51,17.25c-17.77,14.83-23.11,24.41-22.69,36.42s2.06,187.58,1.65,230.59a27.93,27.93,0,0,0,.14,2.93c-33.67.49-64.55,1.25-90.78,2.26-76.9,3-76.9,6.36-76.9,8.19h-.07V403.5c0,4.14,65.9,7.69,159.65,9.19-3.41.65-6,1.78-7,3a2.34,2.34,0,0,0,.23,3.52c3.89,3.45,15.74,13.95,19.6,24.2a198.54,198.54,0,0,1,5.88,20c1.12,4.35,2.17,8.46,3.24,11.74,1.45,4.47.59,8.22-1.13,15.71-1.23,5.4-2.93,12.79-4.5,23.73-2.55,17.8,4.94,28.13,10.41,35.67,2.73,3.76,5.09,7,5.51,10.19,1.19,9.18-2,38.08-2.5,42.52-2.44-.91-4.84-1.9-7.19-3l-1.06-.5v1c0,3.28.14,6.57.28,9.86.37-2.91.71-5.82,1-8.73a97.42,97.42,0,0,0,18.23,7.92q10,3.3,20.21,5.71c3.41.8,6.82,1.58,10.27,2.24q2.56.53,5.15,1c1.72.32,3.45.65,5.18.92,3.46.56,6.92,1.12,10.41,1.55q2.61.35,5.25.6c.87.1,1.76.17,2.65.23.49,0,1,.07,1.55.08-.12,2.8-.23,5.6-.3,8.4q-.13,4.79-.13,9.58.83-4.73,1.49-9.48c.47-3.16.89-6.33,1.29-9.5l.13-1-1.33-.12c-.79-.07-1.56-.13-2.44-.27-.58-.07-1.16-.16-1.74-.25.18-1.64.38-3.94.62-6.71,1-11.65,2.9-33.33,6.72-38.71,1.4-2,4.67-6.66,8.78-12.54,11-15.76,27.59-39.58,30.63-43.23s2.2-7.28,1.72-9.78c-.16-.83-.43-2.22-.19-2.45a4.46,4.46,0,0,1,.77-.47c1.46-.8,3.68-2,5.2-6.89.47-1.43,10.8-19.71,21-36,7.16-2.4,26.3-6.1,40.72-7.85,3.93-.47,5.5-5.57,5.66-6.15l.11-.38-.16-.37c-2.67-5.92-19.71-9.11-30.18-8.24a135.91,135.91,0,0,1,11.37-11.72,64.3,64.3,0,0,0,4.61-4.59c1-1.15,4-4.63,2.46-7.39-1.39-2.48-5.76-3.35-13.74-2.74-1.69.13-16.77,1.75-28.06,18.56a42.13,42.13,0,0,0-9.74,8.06c-2.38-.34-6.85.72-9.17,1.33,0-.58-.09-1.18-.13-1.79a96.54,96.54,0,0,1,.44-13.47c.43-5.44.78-9.78-.22-12.46,120.43-.86,211.6-4.91,211.6-9.78l-.62-25.73c1.18-.62,1.19-1.17,1.19-1.62M389,355.24c5.15,7,14.95,15.64,33.26,20.22l-.38,0c-4.61-.24-9.23-.41-13.84-.54q-13.86-.37-27.71-.41c-9.23,0-18.47,0-27.71.21-4.61.1-9.23.23-13.85.43l-2.45.13c18-4.67,27.66-13.21,32.79-20.22a35.51,35.51,0,0,0,6.67-15.45,3.64,3.64,0,0,0,2.12.67h2.27a3.68,3.68,0,0,0,2.15-.69A35.29,35.29,0,0,0,389,355.24M374.05,444q-.19.65-.36,1.38a114.27,114.27,0,0,0-14.13,6,95.91,95.91,0,0,1-3-14.38c-1.39-8.93-2.5-16-6.34-16.9-2.69-.65-5.24,2-6.93,4.11-9.31,11.5-7.9,24.76-3.34,33.72l-.93.55c-7,4.15-23.24,13.85-27.85,13.08-4.95-.82-14.07-10.56-17.79-19-3.37-12.13-8.95-27.13-22.25-35.75a28.9,28.9,0,0,0-9.78-3.95c27.1.36,56.27.56,86.66.56q18.78,0,36.88-.1c-9.91,7-12.4,21.63-10.86,30.69m-50.22-65.81-.29-.56,1.44-.2,0,0a1.29,1.29,0,0,0,.27.13l.46.15.89.18c.58.09,1.16.16,1.73.23,1.16.13,2.31.23,3.47.31,2.31.17,4.61.29,6.92.39,4.62.21,9.24.34,13.86.44,9.23.19,18.47.24,27.7.21s18.47-.16,27.71-.41q6.92-.19,13.84-.53c2.3-.12,4.61-.26,6.91-.45,1.15-.09,2.3-.19,3.44-.33.51-.06,1-.13,1.51-.22l.92.13v.55c-3.08,1-24.43,1.93-55.33,1.93-31.44,0-53-1-55.48-2m109.84-.63c-.49.07-1,.14-1.46.19-1.14.13-2.29.23-3.44.31-2.31.17-4.61.29-6.92.4-4.61.2-9.22.33-13.84.43-9.23.19-18.46.24-27.7.21s-18.46-.16-27.69-.41c-4.61-.13-9.22-.29-13.83-.53-2.3-.12-4.6-.26-6.9-.44-1.14-.1-2.29-.2-3.42-.34-.54-.06-1.08-.13-1.6-.22,1.75-.28,3.44-.59,5.06-.93,2.28-.18,4.57-.31,6.86-.43,4.61-.24,9.22-.4,13.83-.53,9.23-.26,18.46-.38,27.69-.42s18.47,0,27.7.22c4.62.09,9.23.22,13.84.43l.88,0a102.07,102.07,0,0,0,10.94,2M342.88,213.17a91.55,91.55,0,0,0,25.39,16.65c0,.05,0,.1,0,.16v1.53a2.75,2.75,0,0,0,2.83,2.66h3.75a3.15,3.15,0,0,0-.54,1.76V336.62l-.12,0c.36,1.33-.37,9.08-6.5,17.47A44.94,44.94,0,0,1,356,365.05H342.09c.06-.74.07-1.51.08-2.28-.24-24.77.21-93.47.71-149.6M382,235.93V336.88a1.82,1.82,0,0,1-1.87,1.77h-2.27a1.83,1.83,0,0,1-1.88-1.77V235.93a1.83,1.83,0,0,1,1.88-1.76h2.27a1.82,1.82,0,0,1,1.87,1.76m6-4.42a1.08,1.08,0,0,1-1.11,1.05H371.08a1.08,1.08,0,0,1-1.11-1.05V230a1.08,1.08,0,0,1,1.11-1H387a1.08,1.08,0,0,1,1.11,1ZM379,59.79c22.42,0,39,.71,45,1.5h0c-6.18.8-23.25,1.51-45,1.51s-38.82-.71-45-1.51h0c6-.79,22.61-1.5,45-1.5m-47.66,2.66c1.6.47,5.26.9,13.66,1.31,9.09.44,21.16.68,34,.68s24.92-.24,34-.68c8.5-.41,12.15-.85,13.71-1.33,11.09,15.18,24.19,67.06,17.95,93.64-5.7,24.24-19.95,56.44-55.47,72.22h-.06a2.9,2.9,0,0,0-2.16-1H371.08a2.91,2.91,0,0,0-2.17,1h-.05c-35.53-15.78-49.77-48-55.47-72.22-6.24-26.57,6.85-78.42,17.93-93.62M287.41,8.92l3.44.05-.22,11.23c6.24.22,20.22.37,23.63.25l0,.62c-2.54.08-9.86.77-16.23.77-2.85,0-5.5,0-7.45-.06l-1.27,67c12.57.12,24.41,0,24.54,0v.64a99.21,99.21,0,0,1-14.55,1.06c-3.13,0-6.56,0-10,0l-.1,5.38-3.44,0Zm-4.64-6.47a.87.87,0,0,1,.89-.84h31.16a.87.87,0,0,1,.89.84V3.81a.87.87,0,0,1-.89.84H283.66a.87.87,0,0,1-.89-.84Zm-16,118.87,3.42.4-.09,2.07c-.28,4.62,5,159.22,6,241.27l-6.87.07c-.49-40.16-2.87-240.65-2.46-243.81M91.58,376.15h0c7.93-3.34,70.87-6.76,165.22-8.16.94,2.34,3.2,4,8.81,4,7.12.43,58.78-.15,67.07,0,6.11,0,8.25-2,9-4.63H352.2c-7.16,3.95-16.75,7.25-29.55,8.8Zm300,140.46c-3.11,3.73-19.74,27.59-30.76,43.38-4.09,5.88-7.36,10.57-8.76,12.53-4.18,5.88-6,27.11-7.12,39.8-.24,2.67-.43,4.91-.6,6.51-1.18-.2-2.35-.39-3.52-.61-3.41-.62-6.83-1.24-10.24-1.93s-6.82-1.33-10.21-2.09L310.21,612c-6.16-1.43-12.3-2.94-18.38-4.63-5.93-2-9.91-3.66-11.5-4.34.6-5.3,3.69-33.42,2.46-42.82-.48-3.73-3-7.2-5.92-11.21-5.53-7.64-12.43-17.13-10-34.07,1.56-10.84,3.25-18.19,4.47-23.55,1.81-7.87,2.71-11.82,1.07-16.86-1-3.22-2.09-7.29-3.19-11.61a202.57,202.57,0,0,0-6-20.24C259.2,431.87,247,421.09,243,417.54a.8.8,0,0,1-.15-.17c0-.11.38-.67,1.9-1.33,5-2.17,16.47-2.81,25,2.7,7.51,4.87,12.44,12,15.9,19.39-.52.46-1,.92-1.59,1.35s-.85.64-1.3.92a3.34,3.34,0,0,1-1.49.59,3.67,3.67,0,0,0,1.63-.34,15.76,15.76,0,0,0,1.5-.7c.57-.3,1.12-.61,1.66-.94a100.22,100.22,0,0,1,5,14.24l.06.15c3.08,7,10.28,15.81,16.29,19.14,2.24,2,4.6,3.79,7,5.53q4.33,3.07,8.95,5.76a94.49,94.49,0,0,0,9.5,4.88A56.53,56.53,0,0,0,343,492.18a55.63,55.63,0,0,1-9.94-3.86,93.27,93.27,0,0,1-9.21-5.21q-3.94-2.53-7.65-5.36l.43.17c1.92.72,3.87,1.38,5.84,2s4,1.13,6,1.56c1,.2,2,.38,3,.51a8.39,8.39,0,0,0,3.08-.1,8.29,8.29,0,0,1-3.06-.05c-1-.17-2-.39-3-.64-2-.52-3.92-1.14-5.85-1.82s-3.82-1.41-5.68-2.22a44.13,44.13,0,0,1-4.2-2.05l-1.42-1.2c5.48.23,17.77-6.77,29-13.44l.76-.46c.13.2.25.42.37.61-.79,5.29,2.7,15.58,8.86,22.32-.23,3.65,2.73,15.47,5.72,20a19.07,19.07,0,0,0-2.72.23c1.11.2,2.2.37,3.29.54.08.09.15.21.23.29l.26-.22.31.05c1.35.21,2.7.39,4,.63a48.7,48.7,0,0,1,7.92,1.87,12.3,12.3,0,0,0-3.64-2,23,23,0,0,0-4.06-1,30.78,30.78,0,0,0-3.58-.36l.6-.5c-3-3.2-6.44-17.66-5.91-19.58l.17-.47a16.52,16.52,0,0,0,3.37.08,21.72,21.72,0,0,0,5.25-1.24,21.54,21.54,0,0,1-5.27.95,15.9,15.9,0,0,1-3.64-.31l-.13-.14c-5.87-6.18-9.47-16.54-8.58-21.1a11.16,11.16,0,0,0,3.51-.08,18.19,18.19,0,0,0,5.24-1.81,18.37,18.37,0,0,1-5.28,1.52,11,11,0,0,1-3.39-.09l0-.09-.26-.39c-.34-.49-.67-1-1-1.63l-.16-.28c-1.59-2.87-8.94-17.93,2.61-32.2,2.65-3.28,3.94-3.38,4.37-3.28,2.26.55,3.52,8.56,4.53,15,.9,5.73,1.82,11.66,3.56,16.1l.5,1.28h0c.21.46.44.9.7,1.36a71.82,71.82,0,0,1,4.45,9c-.29,0-.59-.05-.88-.05a5.08,5.08,0,0,0-2.75.6,5.1,5.1,0,0,1,2.73-.32c.35,0,.71.11,1.06.18.43,1.09.77,2,1.06,2.87a26.07,26.07,0,0,0,1.13,2.87l-3,1.31,3.2-.9c.13.24.26.48.41.72l2.11-1.17A17.4,17.4,0,0,1,367,467.6,67.13,67.13,0,0,0,361.12,455a14.42,14.42,0,0,1-.72-1.41A116.25,116.25,0,0,1,373.32,448c-.91,7.79.66,18.82.93,20.58-.3,1.15-1.63,6.38-2.51,10.15l-1.42-3.41c-.59-1.38-1.06-2.68-1.85-4.17l-2.12,1.17c.67,1.08,1.34,2.5,2,3.8l2,4c.26.51.53,1,.79,1.51-.06.3-.11.57-.13.76l.56.07c1,1.85,2,3.69,3,5.5a74.93,74.93,0,0,0,5,7.46,23.29,23.29,0,0,0,6.64,6.13,22.43,22.43,0,0,1-6.13-6.46,71.08,71.08,0,0,1-4.39-7.66c-.79-1.57-1.53-3.18-2.25-4.79.25-1.79,2.24-9.73,3.26-13.69l.05-.22,0-.22s0-.13,0-.32a6,6,0,0,0,1.59.91,10.77,10.77,0,0,0,2.35.58,14.19,14.19,0,0,0,4.78-.16,14.1,14.1,0,0,1-4.72-.12,10.43,10.43,0,0,1-2.22-.7,4.4,4.4,0,0,1-1.73-1.29l-.15.09c-.45-3.33-1.78-14.16-.58-20.8h0l0-.16a15.44,15.44,0,0,1,.35-1.51,16.3,16.3,0,0,0,3.55,1.06,26.24,26.24,0,0,0,5,.42,26.15,26.15,0,0,1-4.93-.7,15.07,15.07,0,0,1-3.48-1.28v0l.08-.27,0-.27c-1.65-9.07,1-24.41,12.07-30.09,2-1,3.51-1.36,4.26-.91,1.8,1.09,1.33,7,.87,12.64a97.71,97.71,0,0,0-.43,13.79c.07,1.14.15,2.22.25,3.26v.13a.13.13,0,0,0,0,.06l.11,1.26h0a107.91,107.91,0,0,0,2.36,13.77c.3,1.35.57,2.53.77,3.61h-.07l-1.8.26c-1.19.19-2.38.4-3.57.61,1.21-.12,2.41-.23,3.61-.32l1.8-.12h.1a15.88,15.88,0,0,1,.28,3.47,32.7,32.7,0,0,1-.53,3.48c-.38.15-.77.28-1.15.44a11,11,0,0,0-2.21,1.14,11.17,11.17,0,0,1,2.32-.87c.31-.09.63-.16.95-.24-.27,1.39-.6,3-1,4.72-2.2,10.58-5.16,24.9-2.77,30.84-.52,1-.28,2.33,0,3.81.45,2.35,1,5.26-1.23,7.95m74.28-68.32c-.47,1.31-1.72,3.85-3.48,4.06-12.93,1.57-29.65,4.7-38.35,7.09,4.3-6.79,7.69-11.83,10.09-15,.69-.89,1.21-1.57,1.86-2.37,10-1.78,27.11,1.81,29.88,6.2m-59.47-6.57a39.92,39.92,0,0,1,9.48-8,8.31,8.31,0,0,0,.71.86,13.24,13.24,0,0,0,1.84,1.5,27.26,27.26,0,0,0,4.16,2.23,27.82,27.82,0,0,1-4-2.46,13,13,0,0,1-1.67-1.55,5.72,5.72,0,0,1-.61-.85l.21-.13.16-.23c8.67-13.05,20.63-17.27,26.33-17.71,9.1-.7,11,.83,11.37,1.52.3.53.4,1.86-2.19,4.86-1.09,1.25-2.57,2.64-4.45,4.4a134.59,134.59,0,0,0-13.44,14.21l-2,2.46.06,0-.26.34c-2.7,3.54-6.62,9.41-11.64,17.42l-.19.06-.22.35c-9.81,15.68-20.84,35-21.42,36.85-1.17,3.74-2.68,4.76-3.84,5.4-1.58-5.87,1.35-20,3.17-28.75a85.48,85.48,0,0,0,1.62-9,31.2,31.2,0,0,0-1.17-8.1l-.41-1.81c.34.36.7.72,1.07,1.06a19.24,19.24,0,0,0,1.8,1.44,14.31,14.31,0,0,0,2,1.2,6.51,6.51,0,0,0,2.25.71,12.51,12.51,0,0,1-2-1.09c-.63-.42-1.26-.84-1.87-1.28-1.1-.77-2.18-1.55-3.29-2.31,0-.15-.07-.3-.1-.45A53.29,53.29,0,0,1,406.2,442l0,0Zm-3.22.18a56.32,56.32,0,0,0-6.06,9c-.39-2.18-.75-4.68-1-7.57a47.53,47.53,0,0,1,7.1-1.44m31.91-65.75c-12.53-1.51-22-4.72-29-8.55,113,1,190.23,4.83,199.07,8.55h-170ZM332.51,513.43a63.79,63.79,0,0,1,20.7-5.85l-2.58.71c-.86.24-1.74.42-2.58.71-1.69.54-3.4,1-5,1.69a63.4,63.4,0,0,0-9.56,4.31,43,43,0,0,0-8.34,6,34.64,34.64,0,0,0-6.39,7.68,38.36,38.36,0,0,0-5.39,18.8,57,57,0,0,0,2.92,19.76,46.43,46.43,0,0,1-4.83-19.77,39.67,39.67,0,0,1,1.15-10.27,35.14,35.14,0,0,1,1.39-4.29c-.08-2.14-.08-4.27-.07-6.39,0-3.12.09-6.23.06-9.32a91.22,91.22,0,0,0-.35-9.22,27,27,0,0,0-.81-4.48,8.13,8.13,0,0,0-2.25-4,6.26,6.26,0,0,1,2,1.51,11.33,11.33,0,0,1,1.37,2.08,19.47,19.47,0,0,1,1.57,4.61,45.45,45.45,0,0,1,.93,9.49,80.13,80.13,0,0,1-.61,9.43c-.13,1-.28,2.1-.44,3.15.38-.76.8-1.51,1.24-2.25a38.23,38.23,0,0,1,15.91-14.05M301.8,555.68a10.73,10.73,0,0,1-7.94,1.35l-.12,0-.38,10.28c-.15,4-.37,7.94-.58,11.9s-.47,7.93-.76,11.9l-.41,5.94c-.17,2-.29,4-.41,6-.27-4-.19-8-.12-11.93s.26-7.95.48-11.92.49-7.94.86-11.9c.33-3.42.64-6.85,1.14-10.26a21.44,21.44,0,0,1-7.26-3,27.24,27.24,0,0,1-6-5.17,15.45,15.45,0,0,1-3.67-6.72,30.84,30.84,0,0,0,5.07,5.5,45.4,45.4,0,0,0,5.95,4.48,28.11,28.11,0,0,0,6.64,3.22,14.08,14.08,0,0,0,7.48.39m4.6,12c.17,2.9.22,5.79.23,8.68s0,5.79-.1,8.68-.19,5.79-.39,8.67-.38,5.79-.8,8.66l-.12-4.34,0-4.34c0-2.9.05-5.79.12-8.68s.19-5.78.39-8.67.37-5.78.7-8.66m-38.65,41.66c3.65,3.63,51.38,24.57,87.53,32.13V660l-91.79-2,2.84-48.67Zm46.88-462h-.53l15,0c.08,1.59.22,3.15.45,4.68a80.07,80.07,0,0,0,2.65,11.58,98.85,98.85,0,0,0,9.54,21.59,87.73,87.73,0,0,0,14.69,18.66,74.76,74.76,0,0,0,19.68,13.66,72.6,72.6,0,0,1-18.41-14.75,84.47,84.47,0,0,1-12.9-19,94.05,94.05,0,0,1-7.6-21.28,74.14,74.14,0,0,1-1.66-11c-.1-1.39-.13-2.76-.1-4.11l108.29-.12a56.47,56.47,0,0,1-1.32,6.26c-5.9,26.35-20.06,57.36-53.51,72.86H369.15c-33.45-15.5-47.62-46.51-53.52-72.86a56.27,56.27,0,0,1-1-6.12" transform="translate(-85.83)"/></svg>